<?xml version="1.0" encoding="utf-8"?>
<svg viewBox="31.8055 62.2267 191.8977 72.1516" xmlns="http://www.w3.org/2000/svg">
  <g class="iconsvg-imagesvg" transform="matrix(1, 0, 0, 1, 31.805517196655273, 62.22668457031249)" opacity="1" fill="#333">
    <g>
      <rect fill="#333" fill-opacity="0" stroke-width="2" x="0" y="0" width="70" height="72.15155950442185" class="image-rect"/>
      <svg x="0" y="0" width="70" height="72.15155950442185" filtersec="colorsb4860859256" class="image-svg-svg primary" style="overflow: visible;">
        <svg xmlns="http://www.w3.org/2000/svg" viewBox="-0.00007700920104980469 0 123.22541809082031 127.01274871826172">
          <title>资源 98</title>
          <path d="M61.38 89.86c-1.74-.15-3.48-.44-5.21-.45-10.33 0-20.66 0-31-.08a6 6 0 0 1-3.73-1.5C15.2 81.74 9.06 75.52 2.92 69.3-.94 65.4-1 62.55 2.9 58.61c10.9-11 21.88-21.9 32.82-32.85C44.3 17.17 52.86 8.55 61.37 0l19.07 19.2c-4.69 4.65-9.53 9.43-14.35 14.24-9.48 9.46-18.92 19-28.46 28.39-1.59 1.57-1.72 2.48 0 4.16 7.45 7.24 14.75 14.67 22.08 22a24.26 24.26 0 0 1 1.58 1.91z" fill="#6141ac"/>
          <path d="M61.3 89.94a15.17 15.17 0 0 0 2.42-1.65Q74.46 77.66 85.14 67c3-3 3-3.19 0-6.14Q75 50.68 64.83 40.51c-.4-.4-.74-.85-1.46-1.71 1.17-.12 1.92-.26 2.67-.26 10.67 0 21.34 0 32 .08a5.94 5.94 0 0 1 3.66 1.56c6.33 6.15 12.53 12.43 18.76 18.68 3.63 3.65 3.72 6.39.07 10.08Q105 84.66 89.29 100.26c-8.48 8.49-17 16.93-25.42 25.47-1.59 1.62-2.61 1.77-4.25.08-4.86-5-9.86-9.92-14.85-14.83-1.32-1.29-1.49-2.27 0-3.7 5.13-5 10.15-10.11 15.17-15.21a14.14 14.14 0 0 0 1.47-2.21z" fill="#9aedb6"/>
        </svg>
      </svg>
    </g>
  </g>
  <g transform="matrix(1, 0, 0, 1, 109.09519195556639, 76.0703125)" fill="#aaa6c3">
    <g data-gra="path-name" fill-rule="" class="tp-name iconsvg-namesvg" transform="matrix(1,0,0,1,0,0)" opacity="1">
      <g transform="scale(1)">
        <g>
          <path d="M28.28-14.08C28.28-21.88 21.92-28.2 14.08-28.2L2.92-28.2 2.92 0 15 0C22.4 0 28.28-6.6 28.28-14.08ZM8.48-5.24L8.48-22.96 14.08-22.96C18.8-22.96 22.64-18.96 22.64-14.08 22.64-9.36 19-5.24 14.52-5.24ZM48.64-21.72L48.64-20.36C46.8-21.44 44.56-22.16 42.28-22.16 35.48-22.16 31.48-16.72 31.48-10.92 31.48-5.16 35.48 0.32 42.28 0.32 44.68 0.32 46.84-0.4 48.64-1.6L48.64 0 54.2 0 54.2-21.72ZM48.64-6.52C47.28-5.36 45.4-4.68 43.28-4.68 39.36-4.68 36.84-7.64 36.84-10.92 36.84-14.16 39.32-17.12 43.28-17.12 45.36-17.12 47.28-16.4 48.64-15.24ZM74.88-7.36C73.8-5.72 72-4.68 70-4.68 66.48-4.68 63.6-7.48 63.6-10.88 63.6-14.32 66.48-17.12 70-17.12 72-17.12 73.8-16.08 74.88-14.48L78.48-17.8C76.52-20.44 73.48-22.12 70-22.12 63.44-22.12 58.12-17.12 58.12-10.88 58.12-4.68 63.44 0.32 70 0.32 73.36 0.32 76.44-1.36 78.4-4.04ZM82.36 0L87.92 0 87.92-21.72 82.36-21.72ZM85.12-24.08C86.88-24.08 88.28-25.52 88.28-27.32 88.28-29.12 86.88-30.6 85.12-30.6 83.36-30.6 81.92-29.12 81.92-27.32 81.92-25.52 83.36-24.08 85.12-24.08ZM103.88-22.12C97.32-22.12 92-17.12 92-10.88 92-4.68 97.32 0.32 103.88 0.32 110.44 0.32 115.76-4.68 115.76-10.88 115.76-17.12 110.44-22.12 103.88-22.12ZM103.88-4.68C100.36-4.68 97.48-7.48 97.48-10.88 97.48-14.32 100.36-17.12 103.88-17.12 107.44-17.12 110.28-14.32 110.28-10.88 110.28-7.48 107.44-4.68 103.88-4.68Z" transform="translate(-2.9200000762939453, 30.600000381469727)"/>
        </g>
      </g>
    </g>
    <g data-gra="path-slogan" fill-rule="" class="tp-slogan iconsvg-slogansvg" fill="#aaa6c3" transform="matrix(1,0,0,1,-1.7699966430664062,37.92000198364258)" opacity="1">
      <rect width="0"/>
      <rect x="119.37999725341797" width="0"/>
      <g transform="translate(0,0)">
        <g transform="scale(1)">
          <path d="M0.46-0.93L1.01-1.57Q1.40-1.17 1.92-0.92Q2.44-0.67 3.00-0.67L3.00-0.67Q3.72-0.67 4.11-1.00Q4.51-1.32 4.51-1.85L4.51-1.85Q4.51-2.12 4.42-2.32Q4.32-2.51 4.16-2.65Q4.00-2.78 3.78-2.89Q3.56-3.00 3.31-3.12L3.31-3.12L2.28-3.57Q2.02-3.68 1.76-3.84Q1.50-3.99 1.29-4.21Q1.08-4.43 0.95-4.74Q0.81-5.04 0.81-5.43L0.81-5.43Q0.81-5.84 0.98-6.19Q1.16-6.54 1.46-6.80Q1.76-7.06 2.17-7.20Q2.58-7.35 3.08-7.35L3.08-7.35Q3.73-7.35 4.28-7.10Q4.83-6.85 5.21-6.46L5.21-6.46L4.72-5.86Q4.39-6.18 3.99-6.36Q3.59-6.54 3.08-6.54L3.08-6.54Q2.47-6.54 2.11-6.26Q1.74-5.98 1.74-5.49L1.74-5.49Q1.74-5.22 1.84-5.04Q1.95-4.86 2.12-4.72Q2.30-4.59 2.51-4.48Q2.72-4.38 2.94-4.29L2.94-4.29L3.96-3.85Q4.27-3.72 4.54-3.55Q4.82-3.38 5.02-3.15Q5.21-2.93 5.33-2.62Q5.44-2.32 5.44-1.92L5.44-1.92Q5.44-1.50 5.27-1.12Q5.10-0.75 4.79-0.47Q4.47-0.19 4.01-0.03Q3.56 0.13 2.99 0.13L2.99 0.13Q2.23 0.13 1.58-0.15Q0.93-0.44 0.46-0.93L0.46-0.93ZM10.53 0.13L10.53 0.13Q9.84 0.13 9.28-0.13Q8.71-0.40 8.30-0.89Q7.90-1.38 7.67-2.07Q7.45-2.77 7.45-3.64L7.45-3.64Q7.45-4.51 7.67-5.20Q7.90-5.88 8.30-6.36Q8.71-6.84 9.28-7.09Q9.84-7.35 10.53-7.35L10.53-7.35Q11.21-7.35 11.77-7.09Q12.34-6.83 12.75-6.35Q13.17-5.87 13.39-5.19Q13.62-4.50 13.62-3.64L13.62-3.64Q13.62-2.77 13.39-2.07Q13.17-1.38 12.75-0.89Q12.34-0.40 11.77-0.13Q11.21 0.13 10.53 0.13ZM10.53-0.67L10.53-0.67Q11.01-0.67 11.40-0.88Q11.79-1.09 12.07-1.48Q12.35-1.87 12.51-2.41Q12.66-2.96 12.66-3.64L12.66-3.64Q12.66-4.31 12.51-4.85Q12.35-5.39 12.07-5.76Q11.79-6.14 11.40-6.34Q11.01-6.54 10.53-6.54L10.53-6.54Q10.04-6.54 9.65-6.34Q9.26-6.14 8.98-5.76Q8.70-5.39 8.55-4.85Q8.39-4.31 8.39-3.64L8.39-3.64Q8.39-2.96 8.55-2.41Q8.70-1.87 8.98-1.48Q9.26-1.09 9.65-0.88Q10.04-0.67 10.53-0.67ZM16.17 0L16.17-7.22L20.33-7.22L20.33-6.45L17.08-6.45L17.08-4.00L19.83-4.00L19.83-3.23L17.08-3.23L17.08 0L16.17 0ZM24.10 0L24.10-6.45L21.92-6.45L21.92-7.22L27.20-7.22L27.20-6.45L25.02-6.45L25.02 0L24.10 0ZM30.29 0L28.76-7.22L29.71-7.22L30.47-3.29Q30.56-2.69 30.67-2.12Q30.79-1.55 30.88-0.96L30.88-0.96L30.93-0.96Q31.05-1.55 31.18-2.13Q31.31-2.71 31.43-3.29L31.43-3.29L32.44-7.22L33.27-7.22L34.27-3.29Q34.40-2.72 34.54-2.13Q34.67-1.55 34.80-0.96L34.80-0.96L34.84-0.96Q34.94-1.55 35.04-2.13Q35.14-2.71 35.25-3.29L35.25-3.29L36.01-7.22L36.89-7.22L35.39 0L34.29 0L33.20-4.34Q33.11-4.76 33.02-5.16Q32.94-5.57 32.85-5.98L32.85-5.98L32.81-5.98Q32.72-5.57 32.63-5.16Q32.53-4.76 32.45-4.34L32.45-4.34L31.38 0L30.29 0ZM40.05-2.94L42.21-2.94L41.87-4.04Q41.67-4.64 41.50-5.24Q41.32-5.84 41.15-6.47L41.15-6.47L41.10-6.47Q40.94-5.84 40.76-5.24Q40.58-4.64 40.39-4.04L40.39-4.04L40.05-2.94ZM43.13 0L42.44-2.20L39.81-2.20L39.12 0L38.19 0L40.63-7.22L41.66-7.22L44.10 0L43.13 0ZM47.04-6.48L47.04-3.79L48.25-3.79Q49.10-3.79 49.55-4.14Q50-4.49 50-5.19L50-5.19Q50-5.91 49.55-6.19Q49.10-6.48 48.25-6.48L48.25-6.48L47.04-6.48ZM51.12 0L50.09 0L48.35-3.05L47.04-3.05L47.04 0L46.13 0L46.13-7.22L48.38-7.22Q48.93-7.22 49.40-7.11Q49.87-7.01 50.20-6.76Q50.54-6.52 50.73-6.14Q50.91-5.75 50.91-5.19L50.91-5.19Q50.91-4.34 50.47-3.84Q50.03-3.33 49.30-3.15L49.30-3.15L51.12 0ZM53.52 0L53.52-7.22L57.68-7.22L57.68-6.45L54.43-6.45L54.43-4.18L57.17-4.18L57.17-3.40L54.43-3.40L54.43-0.78L57.79-0.78L57.79 0L53.52 0ZM63.54 0L63.54-7.22L67.70-7.22L67.70-6.45L64.45-6.45L64.45-4.18L67.19-4.18L67.19-3.40L64.45-3.40L64.45-0.78L67.81-0.78L67.81 0L63.54 0ZM70.33 0L70.33-7.22L71.28-7.22L73.89-2.68L74.67-1.19L74.71-1.19Q74.68-1.74 74.64-2.33Q74.60-2.92 74.60-3.49L74.60-3.49L74.60-7.22L75.47-7.22L75.47 0L74.53 0L71.91-4.54L71.13-6.03L71.08-6.03Q71.13-5.48 71.17-4.91Q71.20-4.34 71.20-3.77L71.20-3.77L71.20 0L70.33 0ZM78.03-3.61L78.03-3.61Q78.03-4.48 78.28-5.17Q78.53-5.86 78.97-6.35Q79.42-6.83 80.03-7.09Q80.63-7.35 81.36-7.35L81.36-7.35Q82.10-7.35 82.60-7.07Q83.11-6.79 83.42-6.46L83.42-6.46L82.91-5.87Q82.63-6.16 82.27-6.35Q81.92-6.54 81.37-6.54L81.37-6.54Q80.82-6.54 80.38-6.34Q79.94-6.14 79.63-5.76Q79.32-5.38 79.15-4.84Q78.98-4.30 78.98-3.63L78.98-3.63Q78.98-2.95 79.14-2.40Q79.30-1.86 79.60-1.47Q79.90-1.09 80.35-0.88Q80.80-0.67 81.38-0.67L81.38-0.67Q81.76-0.67 82.11-0.79Q82.46-0.90 82.68-1.10L82.68-1.10L82.68-2.98L81.15-2.98L81.15-3.74L83.51-3.74L83.51-0.70Q83.16-0.34 82.58-0.10Q82.01 0.13 81.28 0.13L81.28 0.13Q80.56 0.13 79.97-0.12Q79.38-0.37 78.95-0.85Q78.52-1.33 78.28-2.03Q78.03-2.73 78.03-3.61ZM86.24 0L86.24-7.22L87.15-7.22L87.15 0L86.24 0ZM90.13 0L90.13-7.22L91.08-7.22L93.69-2.68L94.47-1.19L94.51-1.19Q94.48-1.74 94.44-2.33Q94.40-2.92 94.40-3.49L94.40-3.49L94.40-7.22L95.27-7.22L95.27 0L94.32 0L91.71-4.54L90.92-6.03L90.88-6.03Q90.92-5.48 90.96-4.91Q91.00-4.34 91.00-3.77L91.00-3.77L91.00 0L90.13 0ZM98.25 0L98.25-7.22L102.41-7.22L102.41-6.45L99.16-6.45L99.16-4.18L101.90-4.18L101.90-3.40L99.16-3.40L99.16-0.78L102.52-0.78L102.52 0L98.25 0ZM105.05 0L105.05-7.22L109.20-7.22L109.20-6.45L105.96-6.45L105.96-4.18L108.70-4.18L108.70-3.40L105.96-3.40L105.96-0.78L109.31-0.78L109.31 0L105.05 0ZM112.76-6.48L112.76-3.79L113.97-3.79Q114.81-3.79 115.26-4.14Q115.72-4.49 115.72-5.19L115.72-5.19Q115.72-5.91 115.26-6.19Q114.81-6.48 113.97-6.48L113.97-6.48L112.76-6.48ZM116.84 0L115.80 0L114.07-3.05L112.76-3.05L112.76 0L111.84 0L111.84-7.22L114.10-7.22Q114.65-7.22 115.12-7.11Q115.58-7.01 115.92-6.76Q116.25-6.52 116.44-6.14Q116.63-5.75 116.63-5.19L116.63-5.19Q116.63-4.34 116.19-3.84Q115.75-3.33 115.01-3.15L115.01-3.15L116.84 0Z" transform="translate(-0.46199999999999997, 7.348)"/>
        </g>
      </g>
    </g>
  </g>
</svg>